<svg xmlns="http://www.w3.org/2000/svg" xml:space="preserve" width="360" height="405" style="shape-rendering:geometricPrecision;text-rendering:geometricPrecision;image-rendering:optimizeQuality;fill-rule:evenodd;clip-rule:evenodd"><defs><style>.fil0{fill:#fff}</style></defs><g id="Camada_x0020_1"><path class="fil0" d="M234.97 143.97c1.38.43 1.11.29 1.79-.85.56-.95.15-.5 1.16-1.14-1.58-.71-2.57-.71-2.21-2.6-.19-.72-1.75-2.93-2.6-5.71-2.97-9.74 5.82-14.78 11.38-9.71 4.31 3.92 3.93 12.32 4.58 18.48.37 3.51 1.17 5.33 1.28 6.29-8.77-2.54-7.87-4.74-9-6l-.85-.51c-.84.83-1.46.79-2.38 1.32-2.58 1.49-2.2.61-1.88 1.69 1.76 2.6 9.85 6.52 13.79 7.69 23.09 6.85 39.64-10.37 38.24-12.44-1.53-1.74-3.34.97-4.69 2.08-1.5 1.23-2.76 2.07-4.28 3.05-2.59 1.68-6.23 3.18-9.74 4-3.62.84-7.21 1.2-11.71.77-2.83-.27-3.89-.57-4.8-2.63-2.83-6.43.07-19.64-6.66-25.76-4.55-4.16-11.77-3.52-15.14 2.12-1.52 2.55-.96 3.91-1.69 5.88-.29-1.24-1.07-2.85-1.47-4.32-.34-1.21-.5-3.91-2.46-3.02-2.49 1.31 3.14 17.02 9.34 21.32zM245.93 109.75l.48-2.31c-.82-3.31-1.13-4.64-3.55-7.03-9.75-9.6-23.89-1.95-22.68 2.72 2.73 1.07 1.84-1.12 6.78-2.8 6.57-2.25 14.8 1.7 16.49 7.68.36 1.28.6 3.07 2.48 1.74zM281.18 114.87c-.6.79.27.37-.78.68-.91 1.2-3.55 3.65-.72 4.53 1.7-.76 2.36-2.29 3.94-2.57 2.72-1.92 8.64-1.64 12.61.63 6.57 3.77 4.19 8.17 7.52 8.76 1.9-1.67.21-5.52-.61-7.08-.95-1.82-3.08-4.1-5.55-5.46-8.95-4.94-15.94.45-16.41.51z"/><path class="fil0" d="M237.53 138.13c2.01 1.42 1.75 1.46.8 3.55.65-.22 1.76-.59 2.29-.89.03-1.48-.64-3.05-.5-4.76.2-2.45 1.58-4.05-1.28-4.37-1.5 1.19-1.81 4.86-1.31 6.47zM275.19 19.68c-24.34-5.35-41.52 14.18-37.17 30.34 2.57 9.55 10.37 12.99 10.69 15.11-.98 4.39-5.04 16.27-4.45 19.59 32.38 9.06 30.4 11.76 56.13 25.48-6.16-11.88-38.01-23.48-48.34-28.73.07-1.88.59-3.12 1.06-5.03.46-1.86.73-3.56 1.16-5.35.35-1.47 1-3.53 1.25-5.22.47-3.12.26-2.24-2.2-4.59-19.52-18.65-2.29-41.91 26.03-31.86 12.08-12.59 25.19-15.75 40.64-5.12 14.25 9.8 15.01 24.58 3.04 39.3 2.82-.17 4.45-1.61 7.45-2.96 8.77 4.94 12.95 15.19 9.48 24.14-4.44 11.46-14.33 11.96-24.88 8.04l-7.03 10.83c-9.29-7.03-8.85-9.87-24.17-18.04-11.27-6-18.68-7.28-29.76-9.45 3.51 2.77 19.86 3.11 41.74 21.32 3.04 2.53 8.31 8.1 10.61 9.58l7.14-7.19c13 2.27 26.01 1.41 32.34-12.39 7.21-15.73-3.78-24.18-9.69-31.96 13.6-41.53-41.47-60.6-61.07-35.84z"/><path class="fil0" d="m292.91 75.98 2.76 1.7c2.37-1.21 13.59-12.94 14.95-15.62-3.7.88-15.79 9.93-17.71 13.92zM278.26 68.99l3.57 1.38c1.49-2.9 3.26-18.01 1.16-21.82l-4.73 20.44zM306.42 86.02l2.31 2.56c2.25-1.13 10.42-9.1 12.32-11.53l-7.42 3.76c-2.38 1.42-5.25 3.02-7.21 5.21zM261.52 64.89l3.88.97c1.28-6.03-.22-12.4-.76-17.51l-3.12 16.54zM228.79 135.99c3.41 6.48 10.1 13.29 17.43 15.49l-.19-4.28c-5.74-1.34-9.72-6.21-12.73-12.96l-4.51 1.75z"/><path class="fil0" d="m237.44 137.77 2.67-.82c.3 2.91 1.16 5.54 2.54 7.87l-2.12 1.16c-1.57-1.91-2.59-5.09-3.09-8.21zM0 288.31c4.54-36.91 162.37-134.6 214.19-130.08 13.79 16.39 23.23 19.08 50.7 19.08 27.47 0 58.36-18.72 69.59-45.28 8.37-.22 16.87-.29 25.52-.22v123.58C279.25 192.34 81.63 297.37 0 405.14V288.31z"/><path d="M0 391.29c92.56-121.54 209.1-182.17 360-155.56" style="fill:none"/><path d="M71.41 307.43c.18-1.8.27-3.69.25-5.67-.02-1.99-.14-4.21-.37-6.66-.22-2.45-.56-5.21-1-8.26-.45-3.05-1.05-6.5-1.8-10.36-.66-3.61-1.22-6.42-1.66-8.42-.44-2.01-.88-3.61-1.31-4.8-.73-1.91-1.4-3.94-2.01-6.1-.6-2.15-1.08-4.2-1.42-6.12-.34-1.93-.51-3.62-.52-5.05-.01-1.43.25-2.39.79-2.85.3-.27.73-.39 1.28-.34.54.05.85.1.91.18.07.07.15.25.25.52.11.27.2.53.29.78.36 1.26.85 2.74 1.47 4.46.63 1.71 1.42 3.75 2.38 6.12a318.3 318.3 0 0 0 3.46 8.16c1.35 3.08 2.93 6.61 4.73 10.6 6.53 14.45 9.81 26.45 9.83 36 .03 9.54-2.77 16.77-8.38 21.69-1.49 1.31-3.1 2.36-4.83 3.16-1.74.8-3.42 1.33-5.05 1.58-1.64.26-3.16.2-4.57-.17-1.4-.38-2.54-1.06-3.42-2.06-.36-.41-.63-.91-.81-1.5-.19-.59-.28-1.2-.28-1.82 0-.62.09-1.21.28-1.77.18-.55.49-1.02.91-1.39.15-.13.33-.24.53-.31.2-.08.33-.08.4-.01 0 0-.01.14-.04.42-.02.28-.02.65 0 1.09.01.44.1.91.26 1.4.15.48.42.95.81 1.39.88 1 1.77 1.71 2.68 2.13.91.41 1.81.62 2.72.61.9-.01 1.77-.21 2.6-.61.83-.4 1.59-.91 2.28-1.51 1.6-1.41 2.92-2.84 3.97-4.31 1.04-1.47 1.85-3 2.42-4.58.57-1.59.96-3.26 1.17-5.02.22-1.76.3-3.66.25-5.72a56.87 56.87 0 0 0-.32-5.81c-.21-1.85-.55-3.76-1.03-5.73-.48-1.97-1.07-4.07-1.78-6.3-.71-2.23-1.58-4.76-2.63-7.57-.5-1.27-.93-2.43-1.29-3.49s-.58-1.72-.66-1.97c-.09-.26-.3-.8-.62-1.63-.32-.83-.67-1.7-1.06-2.6-.39-.9-.74-1.73-1.05-2.47-.32-.74-.49-1.13-.52-1.17-.04.04-.02.3.07.78.08.48.2 1.11.35 1.9.71 3.51 1.3 6.54 1.76 9.12.47 2.57.85 4.82 1.16 6.75.3 1.92.54 3.6.71 5.02.17 1.43.28 2.75.32 3.95.08 2.09.06 3.93-.05 5.5-.11 1.57-.3 2.92-.59 4.05-.29 1.14-.64 2.09-1.06 2.85-.41.75-.91 1.39-1.48 1.89-.92.8-1.91 1.28-2.99 1.44-1.08.16-2.15.08-3.2-.24-1.06-.32-2.07-.82-3.05-1.5-.97-.69-1.85-1.48-2.63-2.37-.97-1.11-1.8-2.19-2.47-3.23-.68-1.04-1.36-2.37-2.02-3.98-.67-1.61-1.4-3.67-2.19-6.19-.79-2.52-1.78-5.81-2.98-9.86-1.06-3.6-1.94-6.43-2.64-8.5-.7-2.07-1.31-3.7-1.84-4.87-.52-1.18-1.01-2.08-1.46-2.71-.44-.62-.97-1.28-1.59-1.99-1.33-1.52-2.52-2.18-3.56-1.98-1.05.19-2.09.74-3.12 1.65-1.34 1.17-2.56 2.76-3.66 4.78-1.1 2.01-2.03 4.25-2.78 6.71a48.35 48.35 0 0 0-1.66 7.75c-.36 2.71-.45 5.37-.25 7.98.2 2.62.66 5.07 1.4 7.38.73 2.3 1.82 4.26 3.25 5.89 1.55 1.78 3.16 2.9 4.81 3.35 1.65.46 2.97.25 3.96-.62.95-.84 1.76-2.3 2.4-4.37.65-2.07 1.05-4.31 1.21-6.71.16-2.4.06-4.74-.31-7-.37-2.27-1.1-4.03-2.21-5.29-.32-.37-.69-.64-1.1-.8-.42-.16-.75-.39-1.01-.69-.07-.07 0-.19.19-.36.42-.37 1.22-.35 2.42.04 1.19.4 2.25 1.13 3.2 2.21.97 1.11 1.63 2.71 1.98 4.8.34 2.09.41 4.28.21 6.59-.21 2.31-.71 4.54-1.5 6.67-.8 2.14-1.88 3.81-3.25 5.02-.92.8-2.01 1.41-3.27 1.83-1.25.41-2.58.58-3.97.49-1.39-.08-2.8-.47-4.21-1.16-1.42-.69-2.74-1.74-3.97-3.14-1.75-2-3.07-4.22-3.98-6.67-.9-2.45-1.43-4.98-1.6-7.61-.18-2.63-.03-5.27.43-7.94.47-2.66 1.18-5.22 2.14-7.67.97-2.44 2.13-4.68 3.48-6.72 1.36-2.04 2.85-3.78 4.5-5.22 3.24-2.85 6.48-4.13 9.7-3.84 3.22.27 6.06 1.82 8.53 4.64.81.92 1.55 1.96 2.24 3.13.68 1.17 1.36 2.59 2.02 4.27.66 1.68 1.33 3.67 2.01 5.99.68 2.31 1.44 5.1 2.27 8.36.75 3.01 1.43 5.56 2.04 7.64.6 2.08 1.16 3.85 1.66 5.31.51 1.46 1 2.66 1.49 3.61.49.94.97 1.75 1.44 2.45.62.7 1.28 1.19 1.99 1.45.71.27 1.5.02 2.38-.75.57-.51 1.05-2.3 1.44-5.4zm14.33-38.7c.93.02 1.73.23 2.38.62.66.39 1.31 1.06 1.94 2 .84 1.27 1.66 2.95 2.45 5.03.78 2.08 1.76 4.74 2.95 7.98.46 1.23.87 2.11 1.22 2.65.47.69.89.91 1.27.66.46-.31.8-1.25 1.01-2.81.21-1.56.01-3.8-.6-6.71-.84-3.82-1.54-6.79-2.1-8.91-.56-2.11-1-3.67-1.3-4.68-.31-1.01-.47-1.64-.49-1.9-.02-.25.1-.46.35-.63.85-.57 1.84-.63 3-.18 1.15.44 2.08 1.19 2.79 2.26.44.65.82 1.38 1.14 2.17a38.16 38.16 0 0 1 1.54 4.71c.19.73.35 1.34.5 1.84.56 2.11 1.07 3.89 1.54 5.32.48 1.44.89 2.42 1.24 2.95.25.37.5.47.75.3.34-.23.52-.91.55-2.06.03-1.14-.03-2.52-.2-4.13a97.99 97.99 0 0 0-.64-5.08c-.27-1.77-.57-3.41-.9-4.91a50.03 50.03 0 0 0-.54-2.44c-.14-.59-.24-1.01-.3-1.27-.05-.26-.06-.44-.04-.55.02-.1.1-.19.22-.28.3-.2.58-.24.84-.12.1.06.24.48.44 1.27.19.79.39 1.71.6 2.75.38 1.76.83 3.74 1.36 5.94.52 2.2.91 4.35 1.16 6.46.25 2.12.28 4.01.08 5.68-.19 1.67-.82 2.86-1.87 3.57-.55.37-1.15.57-1.79.62-.64.04-1.26-.04-1.85-.23-.59-.2-1.14-.5-1.65-.9s-.93-.84-1.26-1.33c-.55-.82-.87-1.67-.97-2.55.35.89.58 1.86.7 2.9.12 1.05.12 2.06.01 3.02-.12.97-.37 1.85-.76 2.64-.38.79-.88 1.39-1.47 1.78-.88.6-1.73.95-2.55 1.05-.82.1-1.58.01-2.28-.26-.7-.27-1.35-.69-1.95-1.27-.6-.58-1.15-1.23-1.64-1.97a20.49 20.49 0 0 1-1.98-3.78c-.56-1.38-.98-2.65-1.27-3.82-.07-.19-.21-.65-.42-1.37-.2-.72-.44-1.56-.71-2.5-.26-.95-.55-1.95-.85-2.99-.3-1.04-.56-2.01-.79-2.89-.23-.89-.38-1.65-.46-2.27-.08-.63-.06-.98.06-1.07.26-.17.77-.27 1.54-.31zm30.5-4.93c-.1-1.31-.11-2.84-.04-4.61.07-1.77.22-3.49.44-5.15.22-1.66.52-3.11.88-4.37.37-1.26.79-2.03 1.27-2.3.36-.21.77-.37 1.26-.5.47-.14.96-.2 1.46-.2s.96.06 1.38.19c.42.12.74.36.93.7.15.37.33.86.54 1.48.2.62.41 1.52.62 2.71.36 1.95.61 3.55.77 4.79.15 1.25.25 1.8.29 1.67 0-1.03.07-2.41.21-4.17.14-1.75.34-3.51.59-5.27.25-1.76.55-3.32.88-4.67.34-1.36.71-2.15 1.1-2.38.31-.17.72-.32 1.24-.45.51-.12 1.03-.19 1.55-.2.52-.01 1.01.06 1.48.22.47.15.82.43 1.04.81.15.37.33.9.56 1.59.22.7.46 1.68.72 2.96.7 3.9 1.4 7.12 2.09 9.65.68 2.53 1.28 4.24 1.79 5.14.37.64.71.88 1.02.7.17-.1.31-.93.41-2.49.11-1.56.15-3.42.12-5.56-.02-2.14-.1-4.33-.24-6.58-.15-2.24-.35-4.11-.62-5.6-.09-.58-.15-.94-.18-1.09-.03-.16.02-.27.16-.35.17-.1.37-.16.58-.2.21-.04.34-.01.39.07.15.26.33 1.23.54 2.93.2 1.7.42 3.66.64 5.89.22 2.23.4 4.49.54 6.79.15 2.3.2 4.2.18 5.69-.08 2.42-.76 4-2.04 4.73-1.28.73-2.67.81-4.17.22-1.51-.59-2.86-1.93-4.06-4.03-.83-1.45-1.57-3.18-2.22-5.19-.65-2.01-1.21-4.25-1.68-6.7l-.14-.26c-.05.02-.06.1-.04.23.01.14.01.24-.01.3-.04.14-.1.72-.2 1.73-.09 1.02-.19 2.17-.3 3.46-.12 1.28-.19 2.54-.22 3.78-.02 1.23 0 2.11.07 2.64.03.38.12.86.26 1.46.14.61.3 1.22.49 1.85.18.64.38 1.23.58 1.8.21.56.4.99.57 1.29l.22.39c.22.38.04.74-.53 1.07-1.06.6-2.22.72-3.48.36-1.26-.36-2.19-1.07-2.8-2.14-.71-1.24-1.41-2.93-2.1-5.06-.69-2.13-1.39-4.38-2.1-6.75.01-.18 0-.31-.05-.4-.09.16-.21.73-.39 1.71-.17.98-.27 2.31-.3 4-.03 1.69.09 3.71.34 6.06.26 2.35.77 4.95 1.52 7.81.27.87.41 1.43.43 1.67.02.25-.23.52-.76.82-1.28.73-2.45.83-3.51.3-1.06-.52-1.85-1.24-2.37-2.14-.46-.81-.9-2-1.33-3.57-.91-3.23-1.61-5.66-2.11-7.31-.5-1.64-.89-2.85-1.16-3.63a39.8 39.8 0 0 0-.63-1.73c-.15-.36-.34-.91-.58-1.62-.18-.63-.39-1.21-.63-1.72-.24-.52-.43-.98-.57-1.38-.14-.4-.21-.75-.2-1.04.01-.29.17-.52.48-.7.36-.2.78-.32 1.29-.35.51-.04 1.06.09 1.66.37.6.28 1.24.76 1.91 1.42.67.67 1.35 1.6 2.03 2.79.4.69.77 1.48 1.14 2.38.37.89.71 1.93 1.03 3.11l.07.13zm34.64-18.33c.05-1.31.21-2.84.48-4.59.26-1.75.6-3.44 1.01-5.06.41-1.63.86-3.04 1.36-4.25.5-1.21 1.01-1.92 1.53-2.15.37-.16.8-.28 1.29-.35.5-.08.99-.09 1.48-.04.5.06.95.17 1.35.35.41.17.69.44.85.8.11.38.23.89.37 1.53.13.64.24 1.56.32 2.76.13 1.98.2 3.6.22 4.85.01 1.25.05 1.82.1 1.69.12-1.02.34-2.39.68-4.12.33-1.72.72-3.45 1.17-5.17.45-1.72.92-3.24 1.4-4.55.49-1.31.94-2.05 1.36-2.23.33-.14.76-.25 1.28-.31.53-.07 1.04-.08 1.56-.03.52.04 1 .17 1.45.38.45.21.77.52.94.92.11.39.24.94.38 1.65.14.72.27 1.72.38 3.01.27 3.96.6 7.24 1 9.83s.8 4.36 1.21 5.31c.29.68.6.95.93.81.19-.08.42-.89.69-2.43.28-1.54.53-3.38.74-5.51.22-2.13.38-4.32.49-6.57.11-2.24.12-4.12.02-5.64-.03-.57-.05-.94-.06-1.1-.01-.15.05-.26.19-.32.19-.08.39-.13.61-.14.21-.01.34.03.38.12.12.27.18 1.26.2 2.97.02 1.71.01 3.68-.02 5.92-.03 2.24-.1 4.51-.22 6.81-.11 2.3-.27 4.19-.46 5.67-.35 2.4-1.19 3.9-2.55 4.48-1.35.58-2.74.5-4.17-.25-1.43-.75-2.63-2.24-3.58-4.46-.66-1.53-1.21-3.34-1.63-5.41-.42-2.07-.73-4.35-.91-6.84l-.12-.28c-.05.02-.07.1-.07.23 0 .14-.01.24-.04.3-.05.13-.18.7-.39 1.7-.2 1-.43 2.13-.69 3.39-.26 1.27-.47 2.51-.63 3.74-.17 1.22-.24 2.1-.24 2.63 0 .38.04.87.11 1.49.07.61.16 1.24.27 1.89.12.65.24 1.26.38 1.85.14.58.28 1.03.42 1.35l.17.4c.18.41-.04.74-.64 1.01-1.12.48-2.29.47-3.5-.03s-2.06-1.31-2.54-2.44c-.57-1.31-1.08-3.06-1.52-5.26-.45-2.19-.9-4.51-1.34-6.95.04-.17.04-.31 0-.4-.11.15-.3.71-.58 1.66-.28.95-.53 2.27-.74 3.94-.22 1.68-.34 3.7-.34 6.06-.01 2.36.21 5 .64 7.93.16.9.24 1.47.24 1.71-.01.24-.29.49-.85.73-1.36.58-2.53.55-3.53-.09-.99-.65-1.7-1.44-2.11-2.39-.36-.86-.68-2.1-.93-3.71-.54-3.3-.96-5.8-1.28-7.49-.31-1.69-.55-2.94-.74-3.75-.18-.8-.33-1.4-.43-1.78-.11-.38-.24-.94-.4-1.68-.11-.65-.25-1.24-.43-1.78s-.32-1.02-.41-1.43c-.1-.42-.13-.77-.08-1.06.04-.28.22-.5.55-.64.37-.16.81-.23 1.32-.2.51.02 1.05.2 1.61.55.56.35 1.14.89 1.74 1.62.59.74 1.16 1.74 1.71 3.01.31.72.6 1.55.86 2.48.26.94.49 2 .68 3.21l.05.14zm39.8-4.16c.14-2.91.15-5.17.05-6.76-.1-1.59-.23-2.62-.37-3.09-.06-.03-.14.28-.24.92-.1.65-.2 1.42-.3 2.33-.23 2.23-.49 4.08-.76 5.55-.28 1.47-.61 2.67-.99 3.61-.39.94-.83 1.63-1.33 2.09-.5.46-1.09.79-1.77.99-1.56.47-2.93.34-4.13-.38-1.2-.72-2.06-1.98-2.6-3.78-.21-.7-.37-1.39-.49-2.05-.12-.65-.19-1.48-.22-2.47-.04-1-.03-2.21.02-3.64.05-1.42.13-3.29.24-5.58.06-2.28.08-4 .06-5.15-.03-1.14-.04-1.95-.05-2.41 0-.46 0-.71.02-.74.02-.03.1-.07.24-.11.49-.15 1.02-.11 1.59.1.56.22 1.12.56 1.65 1.01.53.46 1.01.98 1.42 1.55.4.57.69 1.14.86 1.71.05-.02.13.59.23 1.82s.23 3.44.39 6.63c.07 1.83.13 3.31.18 4.46.05 1.14.09 2.04.13 2.69.04.66.06 1.13.06 1.41.01.28.02.47.05.57.06.18.18.25.38.19.24-.07.56-.38.95-.94.39-.55.69-1.12.89-1.69.11-.34.22-.76.33-1.26.12-.49.25-1.19.38-2.08.13-.88.3-1.99.52-3.31.21-1.33.48-2.96.8-4.91l.93-5.67-.49-2.71c-.28-1.46-.45-2.36-.53-2.7-.07-.33.08-.56.47-.68.55-.11 1.24-.07 2.07.12.82.19 1.6.54 2.33 1.04.21.14.37.27.48.39.12.12.24.31.36.55.13.25.25.57.37.97l.5 1.66c.28.95.54 1.99.77 3.13.24 1.14.46 2.52.69 4.15.15 1.39.25 2.19.31 2.37.19-.05.47-.55.83-1.48.36-.93.71-2.04 1.07-3.33.36-1.29.68-2.6.97-3.95.29-1.34.47-2.49.56-3.44.05-.38.19-.6.44-.67.14-.05.35-.02.62.08.26.1.42.22.46.36.19.62.21 1.45.07 2.49-.14 1.04-.39 2.2-.75 3.47-.37 1.26-.81 2.58-1.33 3.94-.52 1.36-1.06 2.69-1.63 3.99l-1.04 2.4.08 2.9c.06 1.99.12 3.69.17 5.12.06 1.42.07 2.71.05 3.88-.02 1.16-.07 2.29-.14 3.39-.07 1.11-.17 2.32-.3 3.64-.27 2.65-.7 5.2-1.3 7.64-.6 2.44-1.35 4.67-2.26 6.69-.91 2.02-1.97 3.71-3.17 5.07-1.21 1.37-2.55 2.27-4.01 2.7-1.26.38-2.32.35-3.17-.09-.84-.44-1.42-1.18-1.73-2.22-.24-.8-.2-2.2.13-4.21.33-2 .86-4.29 1.6-6.87.74-2.59 1.67-5.31 2.78-8.16 1.11-2.85 2.31-5.55 3.62-8.1l.86-1.64.07-3.5zm-.77 17.66c.09-.59.17-1.39.25-2.38.07-1 .13-1.97.2-2.92.06-.94.1-1.76.1-2.46 0-.69 0-1.06-.02-1.11-.06-.03-.3.44-.73 1.41-.42.98-.91 2.15-1.45 3.52-.55 1.37-1.08 2.79-1.59 4.26-.52 1.46-.93 2.68-1.22 3.64-.73 2.17-1.23 4.14-1.49 5.92-.27 1.78-.3 2.99-.1 3.65.11.38.34.52.68.42 1.55-.47 2.71-1.84 3.46-4.12.75-2.28 1.39-5.56 1.91-9.83zm40.35-18.3c-3.02-1.88-5.43-4.22-7.21-7.01-1.78-2.79-2.96-6.34-3.54-10.63-.52-3.91-.44-7.83.23-11.78.68-3.94 1.81-7.72 3.4-11.34 1.6-3.61 3.55-7.01 5.87-10.17 2.31-3.17 4.85-5.97 7.6-8.4 2.75-2.43 5.61-4.43 8.57-6 2.97-1.56 5.92-2.54 8.84-2.93 1.66-.22 3.22-.16 4.67.19 1.46.35 2.73.93 3.81 1.74 1.08.8 1.97 1.81 2.68 3.04.7 1.22 1.15 2.57 1.34 4.04.32 2.34-.07 5.17-1.17 8.44-.78 2.21-1.71 4.26-2.79 6.17-1.07 1.92-2.27 3.59-3.59 5.04-1.32 1.45-2.71 2.62-4.18 3.51-1.47.9-2.96 1.44-4.47 1.65-1.21.16-2.4.16-3.58-.01-1.17-.16-2.25-.49-3.24-.98-.99-.49-1.8-1.13-2.45-1.91a5.345 5.345 0 0 1-1.17-2.71c-.21-1.56.15-2.98 1.09-4.25.93-1.27 2.4-2.03 4.42-2.3 1.36-.19 2.05-.13 2.09.16.04.29-.41.54-1.35.77-1.14.3-1.87.97-2.2 1.99a7.348 7.348 0 0 0-.27 3.16c.17 1.26.61 2.27 1.33 3.04.72.76 1.46 1.1 2.21 1 1.01-.14 2.11-.65 3.3-1.53 1.18-.88 2.37-2 3.54-3.38 1.17-1.37 2.3-2.92 3.38-4.63s2.01-3.46 2.79-5.25c.79-1.8 1.37-3.57 1.75-5.31.38-1.74.48-3.34.28-4.81-.21-1.56-.78-2.86-1.71-3.9-.94-1.05-2.21-1.46-3.82-1.24-.25.03-.53.08-.83.14-.3.07-.62.15-.97.25-2.81.77-5.49 2.12-8.02 4.05-2.54 1.93-4.89 4.26-7.06 6.99-2.18 2.72-4.12 5.73-5.83 9.01a63.427 63.427 0 0 0-4.22 10.15 56.166 56.166 0 0 0-2.24 10.48c-.4 3.5-.4 6.82.02 9.94.39 2.93.94 5.41 1.65 7.42.7 2.02 1.63 3.63 2.76 4.82 1.13 1.19 2.47 1.98 4.01 2.37 1.54.39 3.34.44 5.4.17 1.96-.27 3.85-.99 5.67-2.18 1.81-1.18 3.55-2.66 5.21-4.42a45.63 45.63 0 0 0 4.6-5.8c1.41-2.1 2.67-4.2 3.77-6.28a89.33 89.33 0 0 0 2.87-5.9c.8-1.85 1.4-3.4 1.8-4.64.29-.89.61-1.66.95-2.33.35-.67.7-1.03 1.05-1.07.2-.03.32.06.34.25.04.24-.04.71-.23 1.41s-.43 1.49-.72 2.37c-.58 1.82-1.29 3.84-2.15 6.07-.85 2.22-1.86 4.48-3.01 6.77a71.435 71.435 0 0 1-3.87 6.71 43.611 43.611 0 0 1-4.66 5.95c-1.68 1.79-3.49 3.29-5.43 4.5-1.95 1.2-4 1.95-6.16 2.24-1.76.23-3.66.08-5.68-.47-2.02-.55-3.85-1.36-5.47-2.44zm65.18-34.02c.1-.01.27.07.5.21.23.14.37.26.43.36 0 .15-.27.83-.8 2.05-.54 1.21-1.17 2.61-1.91 4.17-.73 1.57-1.49 3.12-2.27 4.66-.79 1.54-1.43 2.74-1.92 3.58-1.72 3.04-3.09 5.15-4.11 6.33-1.02 1.17-2.04 1.77-3.05 1.79-1.38.03-2.5-.4-3.38-1.27-.88-.87-1.34-2.41-1.38-4.63-.01-.49.06-1.28.22-2.37a88.609 88.609 0 0 1 1.32-7.04c.26-1.14.51-2.06.75-2.75l-.45.6c-.3.4-.64.91-1.04 1.53-.39.63-.82 1.3-1.29 2.02-.47.72-.88 1.39-1.22 1.98-.79 1.3-1.52 2.56-2.18 3.78-.67 1.21-1.23 2.35-1.69 3.39-.47 1.04-.83 1.96-1.1 2.75-.26.8-.39 1.39-.38 1.78 0 .15.02.29.04.41.03.12.05.23.05.33.01.4-.27.6-.83.61-.96.02-1.77-.17-2.41-.55-.64-.38-1.16-.86-1.55-1.45-.39-.58-.67-1.22-.84-1.9a9.26 9.26 0 0 1-.26-1.92c-.04-2.36.48-5.54 1.58-9.52 1.09-3.99 2.62-9.06 4.59-15.2.05-.15.23-.66.54-1.53.32-.87.68-1.94 1.09-3.23.41-1.29.86-2.72 1.37-4.28.5-1.56.96-3.08 1.36-4.57.41-1.48.73-2.86.99-4.12.26-1.26.38-2.26.37-3-.01-.24-.04-.46-.09-.66-.06-.2-.09-.34-.09-.44 0-.3.15-.45.45-.45.61-.02 1.22.17 1.84.55.62.39 1.2.89 1.74 1.52.55.63.99 1.35 1.34 2.16.34.8.52 1.6.54 2.39.02 1.23-.16 2.53-.54 3.89-.38 1.36-.88 3.13-1.5 5.31-.19.74-.54 1.93-1.04 3.57-.5 1.63-1.08 3.45-1.73 5.46-.65 2.01-1.31 4.07-1.98 6.17-.67 2.11-1.28 4.02-1.84 5.73-.55 1.71-1.01 3.09-1.37 4.16-.36 1.07-.54 1.53-.54 1.38v.07c-.05 0 .12-.31.51-.93.4-.63.93-1.44 1.6-2.43.67-1 1.41-2.11 2.22-3.33.82-1.22 1.63-2.42 2.45-3.59.82-1.18 1.57-2.28 2.26-3.3.7-1.02 1.27-1.83 1.71-2.43.6-.85 1.07-1.39 1.42-1.62.35-.23.71-.34 1.06-.35.36-.01.81.06 1.38.2.56.13 1.11.32 1.65.56.53.23.99.52 1.38.86.39.33.59.7.6 1.1-.05.29-.16.69-.33 1.18-.17.5-.49 1.32-.98 2.46-.73 1.69-1.42 3.44-2.07 5.25-.66 1.81-1.24 3.5-1.74 5.06-.51 1.56-.91 2.92-1.22 4.08-.31 1.17-.46 1.97-.45 2.41.01.3.08.45.24.44.66-.01 1.7-1.09 3.14-3.23 1.43-2.15 3.45-5.73 6.05-10.76.78-1.74 1.41-3.08 1.9-4.02.49-.95.79-1.42.89-1.42zm1.56 10.58c-.05.15-.14.45-.28.92-.13.46-.27 1-.41 1.62-.14.61-.26 1.26-.38 1.95-.11.69-.18 1.35-.19 1.99-.01.98.11 1.76.38 2.34.27.57.81.86 1.62.87 1.27.03 2.63-.53 4.07-1.66 1.44-1.13 2.86-2.57 4.23-4.32 1.38-1.74 2.7-3.67 3.96-5.76 1.26-2.1 2.36-4.1 3.31-6 .42-.78.71-1.26.86-1.43a.76.76 0 0 1 .62-.24c.46 0 .68.11.68.3 0 .05-.23.64-.68 1.76-.45 1.13-1.09 2.5-1.91 4.11-.81 1.61-1.79 3.35-2.91 5.23a43.456 43.456 0 0 1-3.68 5.22c-1.32 1.6-2.72 2.93-4.19 3.98-1.46 1.06-2.96 1.57-4.49 1.55-1.42-.03-2.66-.3-3.71-.81-1.06-.51-1.94-1.19-2.63-2.04-.7-.86-1.21-1.85-1.55-2.99-.33-1.14-.49-2.35-.47-3.63.04-2.21.54-4.39 1.5-6.51.95-2.13 2.15-4.04 3.61-5.74 1.45-1.69 3.07-3.06 4.87-4.08 1.8-1.03 3.54-1.53 5.21-1.5 1.47.03 2.64.45 3.48 1.25.85.8 1.27 1.77 1.25 2.9-.02 1.19-.31 2.41-.87 3.68-.56 1.28-1.32 2.43-2.27 3.47-.96 1.05-2.1 1.9-3.41 2.56-1.3.67-2.72.99-4.24.96l-1.38.05zm5.05-9.07c-.47.53-.96 1.15-1.48 1.86-.52.7-.98 1.38-1.37 2.04-.4.66-.73 1.24-.99 1.76-.26.51-.4.84-.4.99 0 .09.03.14.08.14l-.08.08h-.08c1.43-.32 2.71-.94 3.85-1.85 1.13-.92 2.06-1.91 2.79-2.98.74-1.07 1.3-2.09 1.7-3.04.4-.95.6-1.63.61-2.02.01-.44-.09-.67-.3-.67-.35-.01-.99.39-1.92 1.18-.93.8-1.73 1.63-2.41 2.51zm5.44 26.57c.25-.42.56-1.06.94-1.92.39-.85.8-1.78 1.25-2.78.45-1 .88-2 1.3-3 .42-1 .77-1.83 1.03-2.5.2-.53.54-1.51 1.03-2.95.49-1.44.99-2.94 1.52-4.5.52-1.56.99-2.94 1.4-4.14.42-1.2.63-1.82.63-1.87l-1.29-.12c-.5-.04-.95-.01-1.35.1-.39.12-.61.17-.66.17-.15-.02-.21-.25-.17-.69.05-.54.3-.93.76-1.19.46-.26.96-.43 1.5-.53.55-.1 1.05-.17 1.51-.2.46-.03.7-.1.71-.19.45-1.61 1.06-3.42 1.83-5.47.77-2.03 1.65-4.11 2.63-6.26.98-2.14 2.08-4.23 3.28-6.25 1.2-2.02 2.47-3.82 3.81-5.38 1.34-1.56 2.74-2.79 4.2-3.67 1.46-.89 2.94-1.26 4.46-1.12 1.77.16 3.01.68 3.72 1.56.71.89 1.02 1.89.92 3.03-.18 1.92-.84 3.93-2 6.04-1.16 2.11-2.6 4.18-4.31 6.22a71.328 71.328 0 0 1-5.58 5.86c-2.01 1.88-3.92 3.59-5.74 5.12-.22.18-.37.4-.45.67-.07.26-.14.44-.2.53l.01-.07.01-.07-.08-.01c0 .05.17.09.53.12.35.03.78.07 1.28.12.46.04 1.05.09 1.79.16.73.07 1.51.1 2.32.1.82 0 1.62-.03 2.42-.08.79-.05 1.48-.18 2.06-.37.05 0 .1-.01.16-.06.1.01.15.06.14.16-.07.74-.79 1.34-2.16 1.85-1.37.49-3.47.61-6.3.35-.41-.03-.81-.07-1.22-.1-.4-.04-.83-.11-1.28-.2l-.82 2.31c-2 6.34-3.99 11.57-5.97 15.67-1.98 4.1-3.99 7.32-6.03 9.65-2.05 2.34-4.13 3.92-6.25 4.74-2.11.83-4.31 1.14-6.58.93-.91-.08-1.35-.32-1.32-.71.02-.15.13-.29.35-.42.21-.13.47-.17.78-.15l.38.04c2.88.26 5.92-2.59 9.1-8.53zm18.49-30.23c.76-.53 1.66-1.26 2.69-2.21 1.03-.94 2.07-2.01 3.12-3.2 1.05-1.19 2.08-2.47 3.1-3.84 1.02-1.37 1.94-2.72 2.78-4.05.83-1.34 1.52-2.6 2.06-3.79.54-1.18.85-2.24.94-3.18.09-1.08-.19-1.64-.84-1.7-.71-.07-1.73.49-3.06 1.69-1.34 1.19-2.69 2.96-4.08 5.3a76.7 76.7 0 0 0-1.22 2.12c-.4.7-.83 1.56-1.3 2.55-.48 1-.99 2.19-1.55 3.57-.56 1.39-1.24 3.08-2.03 5.09-.23.82-.43 1.34-.6 1.57l-.01.08z" style="fill:#900603;fill-rule:nonzero"/></g></svg>