<svg xmlns="http://www.w3.org/2000/svg" xml:space="preserve" width="34" height="40" style="shape-rendering:geometricPrecision;text-rendering:geometricPrecision;image-rendering:optimizeQuality;fill-rule:evenodd;clip-rule:evenodd"><defs><style>.fil0{fill:#fff}</style></defs><g id="Camada_x0020_1"><path class="fil0" d="M8.29 30.49c.3.1.24.07.39-.18.13-.21.04-.11.26-.25-.35-.16-.57-.16-.49-.57-.04-.16-.38-.65-.57-1.26-.65-2.13 1.28-3.24 2.5-2.13.95.87.87 2.71 1.01 4.06.08.77.26 1.17.28 1.38-1.93-.56-1.73-1.04-1.98-1.32l-.19-.11c-.18.18-.32.17-.52.29-.56.32-.48.13-.41.37.38.57 2.17 1.43 3.03 1.69 5.08 1.5 8.72-2.28 8.41-2.73-.33-.38-.73.21-1.03.45-.33.27-.61.46-.94.67-.57.37-1.37.7-2.14.88-.8.18-1.59.26-2.58.17-.62-.06-.85-.13-1.05-.58-.63-1.41.01-4.31-1.47-5.65-1-.91-2.59-.77-3.33.47-.33.56-.21.85-.37 1.29-.07-.27-.24-.63-.33-.95-.07-.27-.1-.86-.53-.66-.55.28.68 3.73 2.05 4.67zM10.7 22.99l.11-.51c-.18-.72-.25-1.02-.79-1.54-2.14-2.11-5.25-.43-4.98.6.6.23.4-.25 1.49-.62 1.44-.49 3.25.37 3.62 1.69.08.28.14.67.55.38zM18.45 24.11c-.13.17.06.08-.17.15-.2.26-.78.8-.16.99.38-.16.52-.5.87-.56.6-.42 1.9-.36 2.77.14 1.45.82.92 1.79 1.66 1.92.42-.37.05-1.21-.14-1.55-.2-.4-.67-.9-1.22-1.2-1.97-1.08-3.5.1-3.61.11z"/><path class="fil0" d="M8.85 29.21c.44.31.39.32.18.78.14-.05.38-.13.5-.19.01-.33-.14-.67-.11-1.05.05-.54.35-.89-.28-.96-.33.26-.4 1.07-.29 1.42z"/><path class="fil0" d="M29.55 21.97c.46 2.13.4 4.4-.28 6.64-2.21 7.28-10.11 11.46-17.64 9.32C4.1 35.79-.22 28.16 1.99 20.88c1.13-3.72 3.73-6.62 7.01-8.29l.88.98c-3.11 1.49-5.59 4.19-6.64 7.66C1.23 27.84 5.15 34.78 12 36.72c6.84 1.94 14.01-1.85 16.02-8.46.62-2.05.67-4.12.25-6.07l1.28-.22zm-1.48-.57z"/><path class="fil0" d="M17.14 3.24C11.78 2.06 8 6.34 8.96 9.89c.57 2.09 2.28 2.85 2.35 3.31-.21.97-1.11 3.57-.98 4.3 7.12 1.99 6.69 2.58 12.35 5.59-1.36-2.61-8.36-5.15-10.63-6.3.01-.42.13-.69.23-1.11.1-.41.16-.78.25-1.17.08-.32.23-.78.28-1.15.1-.68.06-.49-.48-1-4.3-4.09-.51-9.19 5.72-6.99 2.66-2.76 5.54-3.45 8.94-1.12 3.14 2.15 3.3 5.39.67 8.62.62-.04.98-.36 1.64-.65 1.93 1.08 2.85 3.33 2.08 5.29-.97 2.51-3.15 2.63-5.47 1.76l-1.55 2.38c-2.04-1.54-1.94-2.16-5.31-3.96-2.48-1.31-4.11-1.59-6.55-2.07.77.61 4.37.68 9.18 4.68.67.55 1.83 1.77 2.34 2.1l1.57-1.58c2.86.5 5.72.31 7.11-2.72 1.59-3.45-.83-5.3-2.13-7.01 2.99-9.1-9.12-13.29-13.43-7.85z"/><path class="fil0" d="m21.03 15.58.61.37c.52-.26 2.99-2.83 3.29-3.42-.81.19-3.47 2.18-3.9 3.05zM17.81 14.05l.79.3c.33-.63.71-3.95.25-4.78l-1.04 4.48zM24.01 17.78l.5.56c.5-.24 2.3-1.99 2.71-2.52l-1.63.82c-.52.31-1.15.66-1.58 1.14zM14.13 13.15l.85.21c.28-1.32-.05-2.72-.17-3.84l-.68 3.63zM6.93 28.74c.75 1.42 2.22 2.92 3.83 3.4l-.04-.94c-1.26-.29-2.14-1.36-2.8-2.84l-.99.38z"/><path class="fil0" d="m8.83 29.13.59-.18c.07.64.26 1.22.56 1.73l-.47.25c-.34-.42-.57-1.11-.68-1.8z"/></g></svg>