<svg xmlns="http://www.w3.org/2000/svg" xml:space="preserve" width="360" height="405" style="shape-rendering:geometricPrecision;text-rendering:geometricPrecision;image-rendering:optimizeQuality;fill-rule:evenodd;clip-rule:evenodd"><defs><style>.fil0{fill:#fff}</style></defs><g id="Camada_x0020_1"><path class="fil0" d="M234.97 143.97c1.38.43 1.11.29 1.79-.85.56-.95.15-.5 1.16-1.14-1.58-.71-2.57-.71-2.21-2.6-.19-.72-1.75-2.93-2.6-5.71-2.97-9.74 5.82-14.78 11.38-9.71 4.31 3.92 3.93 12.32 4.58 18.48.37 3.51 1.17 5.33 1.28 6.29-8.77-2.54-7.87-4.74-9-6l-.85-.51c-.84.83-1.46.79-2.38 1.32-2.58 1.49-2.2.61-1.88 1.69 1.76 2.6 9.85 6.52 13.79 7.69 23.09 6.85 39.64-10.37 38.24-12.44-1.53-1.74-3.34.97-4.69 2.08-1.5 1.23-2.76 2.07-4.28 3.05-2.59 1.68-6.23 3.18-9.74 4-3.62.84-7.21 1.2-11.71.77-2.83-.27-3.89-.57-4.8-2.63-2.83-6.43.07-19.64-6.66-25.76-4.55-4.16-11.77-3.52-15.14 2.12-1.52 2.55-.96 3.91-1.69 5.88-.29-1.24-1.07-2.85-1.47-4.32-.34-1.21-.5-3.91-2.46-3.02-2.49 1.31 3.14 17.02 9.34 21.32zM245.93 109.75l.48-2.31c-.82-3.31-1.13-4.64-3.55-7.03-9.75-9.6-23.89-1.95-22.68 2.72 2.73 1.07 1.84-1.12 6.78-2.8 6.57-2.25 14.8 1.7 16.49 7.68.36 1.28.6 3.07 2.48 1.74zM281.18 114.87c-.6.79.27.37-.78.68-.91 1.2-3.55 3.65-.72 4.53 1.7-.76 2.36-2.29 3.94-2.57 2.72-1.92 8.64-1.64 12.61.63 6.57 3.77 4.19 8.17 7.52 8.76 1.9-1.67.21-5.52-.61-7.08-.95-1.82-3.08-4.1-5.55-5.46-8.95-4.94-15.94.45-16.41.51z"/><path class="fil0" d="M237.53 138.13c2.01 1.42 1.75 1.46.8 3.55.65-.22 1.76-.59 2.29-.89.03-1.48-.64-3.05-.5-4.76.2-2.45 1.58-4.05-1.28-4.37-1.5 1.19-1.81 4.86-1.31 6.47zM275.19 19.68c-24.34-5.35-41.52 14.18-37.17 30.34 2.57 9.55 10.37 12.99 10.69 15.11-.98 4.39-5.04 16.27-4.45 19.59 32.38 9.06 30.4 11.76 56.13 25.48-6.16-11.88-38.01-23.48-48.34-28.73.07-1.88.59-3.12 1.06-5.03.46-1.86.73-3.56 1.16-5.35.35-1.47 1-3.53 1.25-5.22.47-3.12.26-2.24-2.2-4.59-19.52-18.65-2.29-41.91 26.03-31.86 12.08-12.59 25.19-15.75 40.64-5.12 14.25 9.8 15.01 24.58 3.04 39.3 2.82-.17 4.45-1.61 7.45-2.96 8.77 4.94 12.95 15.19 9.48 24.14-4.44 11.46-14.33 11.96-24.88 8.04l-7.03 10.83c-9.29-7.03-8.85-9.87-24.17-18.04-11.27-6-18.68-7.28-29.76-9.45 3.51 2.77 19.86 3.11 41.74 21.32 3.04 2.53 8.31 8.1 10.61 9.58l7.14-7.19c13 2.27 26.01 1.41 32.34-12.39 7.21-15.73-3.78-24.18-9.69-31.96 13.6-41.53-41.47-60.6-61.07-35.84z"/><path class="fil0" d="m292.91 75.98 2.76 1.7c2.37-1.21 13.59-12.94 14.95-15.62-3.7.88-15.79 9.93-17.71 13.92zM278.26 68.99l3.57 1.38c1.49-2.9 3.26-18.01 1.16-21.82l-4.73 20.44zM306.42 86.02l2.31 2.56c2.25-1.13 10.42-9.1 12.32-11.53l-7.42 3.76c-2.38 1.42-5.25 3.02-7.21 5.21zM261.52 64.89l3.88.97c1.28-6.03-.22-12.4-.76-17.51l-3.12 16.54zM228.79 135.99c3.41 6.48 10.1 13.29 17.43 15.49l-.19-4.28c-5.74-1.34-9.72-6.21-12.73-12.96l-4.51 1.75z"/><path class="fil0" d="m237.44 137.77 2.67-.82c.3 2.91 1.16 5.54 2.54 7.87l-2.12 1.16c-1.57-1.91-2.59-5.09-3.09-8.21zM0 288.31c4.54-36.91 162.37-134.6 214.19-130.08 13.79 16.39 23.23 19.08 50.7 19.08 27.47 0 58.36-18.72 69.59-45.28 8.37-.22 16.87-.29 25.52-.22v123.58C279.25 192.34 81.63 297.37 0 405.14V288.31z"/><path d="M0 391.29c92.56-121.54 209.1-182.17 360-155.56" style="fill:none"/><path d="M71.41 307.43c.19-1.8.27-3.69.25-5.67-.02-1.99-.14-4.21-.37-6.66-.22-2.46-.56-5.21-1-8.26-.45-3.05-1.05-6.5-1.8-10.36-.66-3.61-1.22-6.42-1.66-8.42-.44-2.01-.88-3.61-1.31-4.8a72.72 72.72 0 0 1-2.01-6.1c-.6-2.16-1.08-4.2-1.42-6.13-.34-1.93-.51-3.61-.52-5.04-.01-1.44.25-2.39.79-2.86.3-.27.73-.38 1.28-.33.54.04.85.1.91.18.07.07.15.24.26.51.1.28.19.54.28.79.36 1.26.85 2.74 1.47 4.45.63 1.72 1.42 3.76 2.38 6.13.96 2.36 2.12 5.09 3.46 8.16 1.35 3.08 2.93 6.61 4.73 10.6 6.53 14.45 9.81 26.45 9.83 35.99.03 9.55-2.77 16.78-8.38 21.71-1.49 1.3-3.1 2.35-4.83 3.15-1.73.8-3.42 1.33-5.05 1.58-1.64.26-3.16.2-4.57-.17-1.4-.38-2.54-1.06-3.42-2.06-.36-.41-.63-.91-.81-1.5-.18-.6-.28-1.2-.28-1.82 0-.62.09-1.21.28-1.77.18-.56.49-1.02.91-1.39.15-.13.33-.24.53-.31.2-.08.33-.08.4-.01 0 0-.01.14-.04.42-.02.28-.02.65 0 1.09.01.44.1.91.26 1.4.15.48.42.95.81 1.39.88 1 1.77 1.71 2.68 2.13.91.41 1.81.62 2.72.61.9-.01 1.77-.21 2.6-.61.83-.4 1.59-.91 2.28-1.51 1.6-1.41 2.92-2.84 3.97-4.31 1.04-1.47 1.85-3 2.42-4.58.57-1.59.96-3.26 1.17-5.02.22-1.76.3-3.67.25-5.72a56.87 56.87 0 0 0-.32-5.81c-.21-1.85-.55-3.76-1.03-5.73-.48-1.97-1.07-4.07-1.78-6.3-.7-2.24-1.58-4.76-2.63-7.57-.5-1.27-.93-2.43-1.29-3.49-.35-1.06-.58-1.72-.66-1.97-.09-.26-.29-.8-.62-1.63-.32-.83-.67-1.7-1.06-2.6-.39-.91-.74-1.73-1.05-2.47-.32-.74-.49-1.13-.52-1.17-.04.04-.02.29.07.78.09.48.2 1.11.35 1.9.71 3.5 1.3 6.54 1.76 9.12.47 2.57.85 4.82 1.16 6.75.31 1.92.54 3.6.71 5.02.17 1.43.28 2.75.32 3.95.08 2.09.06 3.93-.05 5.5-.11 1.57-.3 2.92-.59 4.05-.29 1.14-.64 2.09-1.06 2.85-.41.75-.91 1.39-1.48 1.89-.92.8-1.91 1.28-2.99 1.44-1.08.16-2.14.08-3.2-.24s-2.07-.82-3.05-1.5c-.97-.69-1.85-1.48-2.63-2.37-.97-1.11-1.8-2.19-2.47-3.23-.68-1.04-1.36-2.37-2.02-3.98-.67-1.61-1.4-3.67-2.19-6.19-.79-2.52-1.78-5.81-2.98-9.87-1.06-3.59-1.94-6.42-2.64-8.49-.7-2.07-1.31-3.7-1.84-4.88-.52-1.17-1.01-2.07-1.46-2.7-.44-.62-.97-1.29-1.59-1.99-1.33-1.52-2.52-2.18-3.56-1.99-1.05.2-2.09.75-3.12 1.65-1.34 1.18-2.55 2.77-3.66 4.79-1.1 2.01-2.03 4.25-2.78 6.71a48.35 48.35 0 0 0-1.66 7.75c-.36 2.71-.45 5.37-.25 7.98.2 2.61.66 5.07 1.4 7.38.73 2.3 1.82 4.26 3.25 5.89 1.55 1.78 3.16 2.9 4.81 3.35 1.65.46 2.97.25 3.96-.62.95-.84 1.75-2.3 2.4-4.37.65-2.08 1.05-4.31 1.21-6.71.16-2.4.06-4.74-.31-7-.37-2.27-1.1-4.03-2.21-5.29-.32-.37-.69-.64-1.1-.8-.42-.16-.75-.39-1.01-.69-.07-.07 0-.19.19-.36.42-.37 1.22-.35 2.42.04 1.19.4 2.25 1.13 3.2 2.21.97 1.11 1.63 2.71 1.98 4.8.34 2.08.41 4.28.21 6.59-.21 2.31-.71 4.54-1.5 6.67-.8 2.14-1.88 3.81-3.25 5.02-.92.8-2.01 1.41-3.27 1.83-1.25.41-2.58.58-3.97.49-1.39-.08-2.8-.47-4.21-1.16-1.42-.69-2.74-1.74-3.97-3.14-1.75-2-3.07-4.22-3.98-6.67-.9-2.45-1.43-4.98-1.61-7.61-.17-2.63-.02-5.27.44-7.94.47-2.66 1.18-5.22 2.14-7.67.97-2.44 2.13-4.68 3.48-6.72 1.36-2.04 2.85-3.78 4.5-5.22 3.24-2.85 6.48-4.13 9.7-3.84 3.22.27 6.06 1.82 8.53 4.64.81.92 1.55 1.96 2.24 3.13.69 1.17 1.36 2.59 2.02 4.27.66 1.68 1.33 3.67 2.01 5.99.68 2.31 1.44 5.1 2.27 8.36.75 3.01 1.43 5.56 2.04 7.64.6 2.08 1.16 3.85 1.66 5.31.51 1.46 1 2.66 1.49 3.61.5.94.97 1.75 1.44 2.45.62.7 1.28 1.19 1.99 1.45.71.27 1.5.02 2.38-.75.57-.51 1.05-2.31 1.44-5.4zm14.33-38.7c.93.02 1.73.23 2.39.62.65.39 1.3 1.06 1.93 2 .85 1.27 1.66 2.94 2.45 5.03.78 2.08 1.77 4.74 2.95 7.98.46 1.23.87 2.11 1.22 2.65.47.69.89.91 1.27.66.47-.31.8-1.25 1.01-2.81.21-1.56.01-3.8-.59-6.71-.85-3.82-1.55-6.79-2.11-8.91-.56-2.11-.99-3.67-1.3-4.68-.31-1.01-.47-1.64-.49-1.9-.02-.25.1-.47.35-.64.85-.56 1.85-.62 3-.18 1.15.45 2.08 1.2 2.8 2.27.43.65.81 1.38 1.13 2.17.32.8.61 1.59.87 2.4.26.8.49 1.57.67 2.3.19.74.35 1.35.5 1.85.56 2.11 1.08 3.89 1.55 5.32.47 1.43.88 2.42 1.23 2.95.25.37.5.47.76.3.33-.23.52-.91.54-2.06.03-1.14-.03-2.52-.2-4.13-.15-1.61-.37-3.31-.64-5.08-.27-1.78-.57-3.41-.9-4.91a50.03 50.03 0 0 0-.54-2.44c-.14-.59-.24-1.01-.29-1.27-.06-.26-.07-.44-.05-.55.02-.1.1-.2.22-.28.3-.2.58-.24.84-.12.1.06.24.48.44 1.27.19.79.39 1.71.6 2.75.38 1.76.83 3.74 1.36 5.94.52 2.19.91 4.35 1.16 6.46.26 2.12.28 4.01.09 5.68-.2 1.67-.82 2.86-1.88 3.57-.55.37-1.14.57-1.79.62-.64.04-1.26-.04-1.85-.23-.59-.2-1.14-.5-1.65-.9s-.93-.84-1.26-1.33c-.55-.82-.87-1.67-.97-2.55.35.89.58 1.86.7 2.9.12 1.05.12 2.05.01 3.02-.12.97-.37 1.85-.76 2.64-.38.79-.87 1.39-1.46 1.78-.89.6-1.74.94-2.56 1.05-.82.1-1.58.01-2.28-.26-.7-.27-1.35-.69-1.95-1.27-.6-.58-1.15-1.23-1.64-1.97-.77-1.15-1.43-2.41-1.98-3.79-.56-1.37-.98-2.65-1.27-3.81-.07-.2-.21-.65-.41-1.37-.21-.72-.45-1.56-.72-2.51-.26-.94-.55-1.94-.85-2.98-.3-1.04-.56-2.01-.79-2.9-.22-.88-.38-1.64-.46-2.26-.08-.63-.06-.98.07-1.07.25-.17.76-.27 1.53-.31zm30.51-4.93c-.11-1.31-.12-2.84-.05-4.61.07-1.78.22-3.49.44-5.15.22-1.66.52-3.12.88-4.37.37-1.26.79-2.03 1.28-2.31.35-.2.77-.36 1.25-.5.48-.13.97-.19 1.46-.2.5 0 .96.07 1.38.2.43.12.74.36.93.7.15.37.33.86.54 1.48.21.62.41 1.52.62 2.71.36 1.95.61 3.55.77 4.79.15 1.25.25 1.8.29 1.66 0-1.02.07-2.4.21-4.16.14-1.75.34-3.51.59-5.27.25-1.76.55-3.32.88-4.67.34-1.36.71-2.15 1.1-2.38.31-.17.73-.32 1.24-.45.51-.12 1.03-.19 1.55-.2.52-.01 1.01.06 1.48.22.47.15.82.42 1.04.81.15.37.34.9.56 1.59.22.7.46 1.68.72 2.95.71 3.91 1.4 7.13 2.09 9.66.68 2.53 1.28 4.24 1.79 5.14.37.64.71.88 1.02.7.17-.1.31-.93.42-2.49.1-1.57.14-3.42.12-5.56-.03-2.14-.11-4.33-.25-6.58s-.35-4.11-.61-5.61c-.1-.57-.16-.93-.19-1.08-.03-.16.02-.27.16-.35.17-.1.37-.17.58-.2.21-.04.35-.02.39.07.15.26.33 1.23.54 2.93.2 1.7.42 3.66.64 5.89.22 2.23.4 4.49.54 6.79.15 2.3.2 4.2.18 5.69-.08 2.42-.76 4-2.04 4.73-1.27.73-2.67.8-4.17.22-1.51-.59-2.86-1.93-4.06-4.03-.83-1.45-1.57-3.18-2.22-5.2-.65-2.01-1.21-4.24-1.67-6.7l-.15-.25c-.05.02-.06.1-.04.23.02.13.01.23-.01.3-.04.14-.1.72-.19 1.73-.1 1.02-.2 2.17-.31 3.45-.12 1.29-.19 2.55-.21 3.78-.03 1.24-.01 2.12.06 2.65.04.37.13.86.26 1.46.14.61.31 1.22.49 1.85.19.64.38 1.23.59 1.8.2.56.39.99.56 1.29l.22.39c.22.38.04.74-.53 1.06-1.06.61-2.22.73-3.48.37-1.26-.36-2.19-1.07-2.8-2.14-.71-1.24-1.41-2.93-2.1-5.06-.69-2.13-1.39-4.38-2.1-6.75.01-.18 0-.31-.05-.4-.08.16-.21.73-.39 1.71-.17.98-.27 2.31-.3 4-.03 1.69.09 3.71.35 6.06.25 2.35.76 4.95 1.52 7.81.26.87.4 1.43.42 1.67.02.24-.23.52-.76.82-1.28.73-2.45.83-3.51.3-1.06-.53-1.85-1.24-2.36-2.14-.47-.81-.91-2-1.34-3.57-.91-3.23-1.61-5.66-2.11-7.31-.5-1.64-.89-2.85-1.16-3.63-.27-.79-.48-1.36-.63-1.73-.15-.36-.34-.91-.58-1.62-.18-.64-.39-1.21-.63-1.73-.24-.51-.43-.97-.57-1.37-.14-.41-.21-.75-.19-1.04 0-.29.16-.52.47-.7.36-.2.79-.32 1.29-.35.51-.04 1.06.09 1.66.37.6.28 1.24.75 1.91 1.42.67.66 1.35 1.6 2.04 2.79.39.69.77 1.48 1.13 2.38.37.89.71 1.93 1.03 3.11l.08.13zm34.64-18.33c.04-1.31.2-2.84.47-4.59.27-1.75.61-3.44 1.01-5.06.41-1.63.86-3.04 1.37-4.25.5-1.21 1.01-1.93 1.52-2.15.37-.16.8-.28 1.3-.36.49-.07.98-.09 1.48-.03.49.06.94.17 1.35.34.4.18.69.44.84.81.11.38.23.89.37 1.53.14.64.24 1.56.32 2.76.13 1.98.21 3.59.22 4.85.02 1.25.05 1.81.11 1.68.11-1.01.34-2.38.67-4.11.34-1.73.73-3.45 1.17-5.17.45-1.72.92-3.24 1.41-4.55.48-1.31.94-2.05 1.36-2.23.32-.14.75-.25 1.27-.31.53-.07 1.05-.08 1.57-.03.52.04 1 .17 1.45.38.45.21.76.52.93.92.11.38.24.93.38 1.65.14.72.27 1.72.39 3.01.27 3.96.6 7.24 1 9.83.39 2.59.8 4.36 1.21 5.31.29.68.6.95.93.81.18-.08.41-.89.69-2.43.28-1.54.52-3.38.74-5.51.21-2.13.38-4.32.49-6.57.11-2.24.11-4.12.01-5.64-.02-.58-.04-.94-.05-1.1-.02-.15.05-.26.19-.32.18-.08.39-.13.6-.14.22-.01.34.02.38.12.12.27.19 1.26.2 2.97.02 1.7.02 3.68-.02 5.92-.03 2.24-.1 4.51-.21 6.81-.12 2.3-.27 4.19-.46 5.67-.35 2.4-1.2 3.9-2.55 4.48-1.36.58-2.75.5-4.18-.26-1.43-.75-2.62-2.23-3.58-4.45-.66-1.53-1.2-3.34-1.62-5.41-.43-2.07-.73-4.35-.92-6.85l-.12-.27c-.04.02-.07.1-.07.23.01.14-.01.23-.03.3-.06.13-.19.7-.39 1.7-.21 1-.44 2.13-.7 3.39-.25 1.27-.47 2.51-.63 3.73-.16 1.23-.24 2.11-.23 2.64 0 .38.03.87.1 1.48.07.62.16 1.25.27 1.9.12.65.25 1.26.39 1.84.14.59.27 1.04.41 1.35l.18.41c.17.41-.04.74-.65 1-1.12.49-2.28.48-3.49-.02-1.21-.5-2.06-1.31-2.55-2.44-.56-1.31-1.07-3.07-1.52-5.26-.45-2.19-.89-4.51-1.33-6.95.03-.17.03-.31-.01-.4-.1.15-.29.7-.57 1.66-.28.95-.53 2.26-.75 3.94-.22 1.68-.33 3.7-.34 6.06 0 2.36.21 5 .64 7.93.17.89.24 1.46.24 1.71-.01.24-.29.48-.85.72-1.35.59-2.53.56-3.52-.08-1-.65-1.7-1.45-2.11-2.4-.37-.86-.68-2.09-.93-3.7-.54-3.31-.97-5.8-1.28-7.49-.31-1.69-.56-2.94-.74-3.75-.19-.8-.33-1.4-.44-1.78-.11-.38-.24-.94-.39-1.68-.12-.65-.26-1.24-.44-1.78s-.31-1.02-.41-1.44c-.1-.41-.12-.76-.08-1.05.04-.28.23-.5.55-.64.38-.16.82-.23 1.33-.2.5.02 1.04.2 1.6.55.57.35 1.15.89 1.74 1.62.59.74 1.16 1.74 1.71 3.01.31.72.6 1.55.86 2.48.27.93.49 2 .68 3.21l.06.14zm39.8-4.16c.13-2.92.15-5.17.04-6.76-.1-1.59-.22-2.62-.36-3.09-.06-.03-.15.27-.24.92-.1.65-.2 1.42-.3 2.33-.24 2.23-.49 4.08-.77 5.55-.28 1.47-.61 2.67-.99 3.61s-.83 1.63-1.32 2.09c-.5.46-1.09.79-1.78.99-1.55.47-2.93.34-4.13-.38-1.19-.73-2.06-1.98-2.6-3.78-.21-.7-.37-1.39-.49-2.05-.11-.66-.19-1.48-.22-2.47-.03-1-.02-2.21.03-3.64.05-1.43.13-3.29.24-5.58.06-2.28.08-4 .05-5.15-.02-1.15-.04-1.95-.05-2.41 0-.46.01-.71.02-.74.02-.03.1-.07.25-.11.48-.15 1.01-.11 1.58.1.57.22 1.12.56 1.65 1.01.54.46 1.01.97 1.42 1.55.41.57.7 1.14.87 1.7.05-.01.12.6.22 1.83.1 1.22.23 3.43.39 6.63.07 1.83.13 3.31.18 4.45.05 1.15.1 2.05.13 2.7.04.66.06 1.13.06 1.41.01.28.02.47.05.57.06.18.19.25.38.19.24-.07.56-.38.95-.94.39-.55.69-1.12.89-1.69.11-.34.22-.76.34-1.26.11-.5.24-1.19.37-2.08.13-.88.31-1.99.52-3.31.22-1.33.48-2.96.8-4.91l.93-5.67-.49-2.71c-.27-1.46-.45-2.36-.52-2.7-.08-.33.08-.56.47-.68.55-.11 1.24-.07 2.06.12.83.19 1.6.53 2.34 1.03.2.15.36.28.47.4.12.12.24.3.37.55.12.25.25.57.37.97s.28.95.49 1.66c.28.95.54 1.99.78 3.13.23 1.13.46 2.52.68 4.15.15 1.39.26 2.18.31 2.37.2-.05.47-.55.83-1.48.36-.93.72-2.04 1.08-3.33.35-1.29.68-2.6.96-3.95.29-1.34.48-2.49.56-3.44.05-.38.2-.6.44-.67.15-.05.35-.02.62.08s.43.22.47.36c.18.62.2 1.44.06 2.49-.14 1.04-.39 2.2-.75 3.46-.36 1.27-.81 2.58-1.33 3.95-.52 1.36-1.06 2.69-1.63 3.99l-1.03 2.39.07 2.91c.06 1.99.12 3.69.18 5.12.05 1.42.07 2.71.04 3.88-.02 1.16-.07 2.29-.14 3.39s-.16 2.32-.3 3.64c-.27 2.65-.7 5.2-1.3 7.64-.59 2.44-1.35 4.67-2.25 6.69-.91 2.02-1.97 3.71-3.18 5.07-1.21 1.37-2.54 2.27-4 2.7-1.27.38-2.33.35-3.18-.09-.84-.44-1.42-1.18-1.73-2.22-.24-.8-.19-2.2.13-4.21.33-2 .87-4.29 1.61-6.88.74-2.58 1.66-5.3 2.77-8.15 1.11-2.85 2.32-5.55 3.62-8.1l.87-1.64.07-3.5zm-.77 17.66c.09-.59.17-1.39.24-2.38.07-1 .14-1.97.2-2.92.06-.94.1-1.76.1-2.46.01-.69 0-1.07-.01-1.11-.06-.03-.31.44-.73 1.41-.43.98-.91 2.15-1.46 3.52-.54 1.37-1.07 2.79-1.59 4.26-.52 1.46-.92 2.68-1.22 3.64-.73 2.17-1.23 4.14-1.49 5.92-.26 1.77-.3 2.99-.1 3.65.11.38.34.52.68.42 1.56-.47 2.71-1.84 3.46-4.12.75-2.28 1.39-5.56 1.92-9.83zm40.34-18.3c-3.02-1.88-5.42-4.22-7.2-7.01-1.79-2.79-2.97-6.34-3.54-10.63a38.5 38.5 0 0 1 .23-11.78 48.19 48.19 0 0 1 3.4-11.34c1.59-3.61 3.54-7.01 5.86-10.17 2.32-3.17 4.85-5.97 7.6-8.4 2.75-2.43 5.61-4.43 8.58-6 2.97-1.56 5.91-2.54 8.83-2.93 1.66-.23 3.22-.16 4.68.19 1.45.35 2.72.93 3.81 1.74 1.08.8 1.97 1.81 2.67 3.03.7 1.23 1.15 2.58 1.35 4.05.31 2.34-.08 5.16-1.18 8.44-.78 2.21-1.71 4.26-2.78 6.17-1.08 1.92-2.28 3.59-3.6 5.04-1.31 1.45-2.71 2.62-4.18 3.51-1.46.9-2.95 1.44-4.46 1.65-1.21.16-2.41.16-3.58-.01-1.18-.16-2.26-.49-3.25-.98-.99-.49-1.8-1.13-2.44-1.91a5.18 5.18 0 0 1-1.17-2.71c-.21-1.57.15-2.98 1.08-4.25s2.4-2.04 4.42-2.31c1.36-.18 2.06-.12 2.1.17.04.29-.42.54-1.36.77-1.14.3-1.87.97-2.19 1.99a7.051 7.051 0 0 0-.27 3.16c.17 1.26.61 2.27 1.33 3.04.71.76 1.45 1.09 2.21.99 1-.13 2.1-.64 3.29-1.52s2.37-2 3.54-3.38c1.18-1.38 2.3-2.92 3.38-4.63s2.01-3.46 2.8-5.25c.78-1.8 1.36-3.57 1.75-5.31.38-1.74.47-3.34.28-4.81-.21-1.56-.79-2.86-1.72-3.91-.93-1.04-2.21-1.45-3.82-1.24-.25.04-.52.09-.82.15-.3.07-.62.15-.97.24-2.82.78-5.49 2.13-8.03 4.06-2.53 1.93-4.89 4.26-7.06 6.99-2.17 2.72-4.11 5.73-5.83 9.01a63.378 63.378 0 0 0-4.21 10.15c-1.1 3.47-1.85 6.97-2.25 10.48-.4 3.5-.39 6.82.03 9.94.39 2.93.94 5.41 1.64 7.42.71 2.02 1.63 3.63 2.76 4.82 1.14 1.19 2.47 1.98 4.01 2.37 1.54.39 3.34.44 5.4.17 1.97-.27 3.86-.99 5.67-2.18 1.82-1.18 3.55-2.66 5.21-4.42 1.66-1.77 3.2-3.7 4.61-5.8 1.41-2.1 2.66-4.2 3.77-6.28a88.94 88.94 0 0 0 2.86-5.9c.8-1.85 1.41-3.4 1.8-4.64.29-.89.61-1.66.96-2.33.34-.67.69-1.03 1.05-1.07.2-.03.31.05.34.25.03.24-.05.71-.24 1.41s-.43 1.49-.72 2.37c-.57 1.82-1.29 3.84-2.14 6.07-.86 2.22-1.86 4.48-3.02 6.77a67.28 67.28 0 0 1-3.87 6.71 42.844 42.844 0 0 1-4.66 5.95c-1.68 1.79-3.49 3.29-5.43 4.5-1.94 1.2-3.99 1.95-6.16 2.24-1.76.23-3.65.08-5.67-.47-2.03-.55-3.85-1.36-5.48-2.44zm65.19-34.02c.1-.01.26.07.49.21.24.14.38.26.43.36 0 .15-.26.83-.8 2.05-.53 1.21-1.17 2.6-1.9 4.17-.74 1.57-1.5 3.12-2.28 4.66-.78 1.54-1.42 2.74-1.91 3.58-1.73 3.04-3.1 5.15-4.12 6.33-1.02 1.17-2.04 1.77-3.05 1.79-1.37.03-2.5-.4-3.38-1.27-.88-.87-1.34-2.41-1.38-4.63-.01-.49.07-1.28.22-2.37.16-1.08.36-2.25.59-3.48.23-1.24.47-2.43.73-3.56.26-1.14.51-2.06.75-2.75l-.45.6c-.29.4-.64.91-1.03 1.53-.4.63-.83 1.3-1.3 2.02-.47.72-.88 1.39-1.22 1.98-.79 1.3-1.52 2.56-2.18 3.78-.66 1.21-1.23 2.35-1.69 3.39-.46 1.04-.83 1.96-1.09 2.75-.27.8-.4 1.39-.39 1.78 0 .15.02.29.05.41.03.12.04.23.04.33.01.4-.27.6-.83.61-.96.02-1.76-.17-2.41-.55-.64-.38-1.16-.86-1.55-1.45a5.76 5.76 0 0 1-.83-1.9 8.68 8.68 0 0 1-.27-1.92c-.04-2.36.49-5.54 1.58-9.52 1.09-3.99 2.63-9.06 4.6-15.2.04-.15.22-.66.54-1.53.31-.87.67-1.94 1.08-3.23.41-1.29.87-2.72 1.37-4.28.5-1.56.96-3.08 1.36-4.57.41-1.48.74-2.86 1-4.12.25-1.26.37-2.26.36-3a3.19 3.19 0 0 0-.09-.66c-.05-.2-.08-.34-.08-.44-.01-.3.14-.45.44-.46.62-.01 1.23.18 1.84.56.62.38 1.2.89 1.75 1.52.54.63.99 1.35 1.33 2.16.35.8.53 1.6.54 2.39.02 1.23-.15 2.53-.53 3.89-.39 1.36-.89 3.13-1.51 5.31-.19.74-.53 1.93-1.04 3.57-.5 1.63-1.07 3.45-1.72 5.46-.65 2.01-1.31 4.06-1.99 6.17-.67 2.11-1.28 4.02-1.83 5.73-.56 1.71-1.01 3.09-1.37 4.16-.36 1.07-.55 1.53-.55 1.38v.07c-.05 0 .12-.31.52-.93.39-.63.92-1.44 1.59-2.43.67-1 1.41-2.11 2.23-3.33.81-1.23 1.63-2.42 2.44-3.6.82-1.17 1.58-2.27 2.27-3.29s1.26-1.83 1.71-2.43c.59-.85 1.06-1.39 1.41-1.62.36-.23.71-.34 1.06-.35.36-.01.82.06 1.38.2.56.13 1.11.32 1.65.56.54.23 1 .52 1.39.86.38.33.58.7.59 1.09-.05.3-.15.7-.32 1.19-.17.5-.5 1.32-.99 2.46-.73 1.69-1.42 3.44-2.07 5.25-.65 1.81-1.23 3.49-1.74 5.06-.5 1.56-.91 2.92-1.22 4.08-.31 1.17-.46 1.97-.45 2.41.01.3.09.45.24.44.66-.01 1.71-1.09 3.14-3.23 1.43-2.15 3.45-5.73 6.05-10.76.78-1.74 1.42-3.08 1.91-4.02.49-.95.78-1.42.89-1.42zm1.56 10.58c-.05.15-.15.45-.28.92-.14.46-.28 1-.41 1.62-.14.61-.27 1.26-.38 1.95-.12.69-.18 1.35-.19 1.99-.02.98.11 1.76.37 2.34.27.57.81.86 1.63.87 1.27.03 2.62-.53 4.07-1.66 1.44-1.13 2.85-2.57 4.23-4.32a54.32 54.32 0 0 0 3.95-5.76c1.26-2.1 2.36-4.1 3.32-6 .42-.78.7-1.26.86-1.43.15-.17.36-.25.61-.24.46 0 .69.11.68.3 0 .05-.22.64-.68 1.76-.45 1.13-1.08 2.5-1.9 4.11-.82 1.61-1.79 3.35-2.92 5.23a43.395 43.395 0 0 1-3.67 5.22c-1.33 1.6-2.73 2.93-4.19 3.98-1.47 1.06-2.97 1.57-4.49 1.55-1.42-.03-2.66-.3-3.72-.81a7.637 7.637 0 0 1-2.63-2.04 8.493 8.493 0 0 1-1.54-2.99c-.34-1.14-.5-2.35-.47-3.63.04-2.21.54-4.39 1.49-6.51a23.62 23.62 0 0 1 3.61-5.74c1.45-1.69 3.08-3.06 4.88-4.08 1.8-1.03 3.53-1.53 5.21-1.5 1.47.03 2.63.45 3.48 1.25.85.8 1.26 1.77 1.24 2.9-.02 1.19-.31 2.41-.87 3.68-.55 1.27-1.31 2.43-2.27 3.47a11.84 11.84 0 0 1-3.4 2.56c-1.31.67-2.72.99-4.25.96l-1.37.05zm5.04-9.07c-.46.53-.96 1.15-1.48 1.86-.52.7-.97 1.38-1.37 2.04-.39.66-.72 1.24-.98 1.76-.27.51-.4.84-.4.98 0 .1.02.15.07.15l-.08.08h-.07c1.43-.32 2.71-.94 3.84-1.85 1.14-.92 2.07-1.91 2.8-2.98s1.3-2.09 1.69-3.04c.4-.95.61-1.63.61-2.02.01-.44-.09-.67-.29-.67-.35-.01-1 .39-1.93 1.18-.93.8-1.73 1.63-2.41 2.51zm5.45 26.57c.24-.42.56-1.06.94-1.92.38-.85.8-1.78 1.24-2.78.45-1 .89-1.99 1.31-3 .42-1 .76-1.83 1.03-2.5.2-.53.54-1.51 1.03-2.95.49-1.44.99-2.94 1.51-4.5.53-1.56 1-2.94 1.41-4.14.41-1.2.62-1.82.63-1.87l-1.29-.12c-.51-.04-.96-.01-1.35.1-.39.12-.62.17-.67.17-.15-.02-.2-.24-.16-.69.04-.54.3-.93.75-1.19.46-.25.96-.43 1.51-.53.54-.1 1.04-.17 1.51-.2.46-.03.69-.1.7-.19.45-1.61 1.06-3.42 1.84-5.46a90.88 90.88 0 0 1 2.63-6.27c.98-2.14 2.07-4.23 3.28-6.25 1.2-2.02 2.47-3.82 3.81-5.38 1.34-1.56 2.74-2.79 4.2-3.67 1.45-.89 2.94-1.26 4.46-1.12 1.77.16 3.01.68 3.72 1.56.71.89 1.02 1.89.91 3.03-.17 1.92-.84 3.94-2 6.04a37.805 37.805 0 0 1-4.31 6.22 68.11 68.11 0 0 1-5.58 5.86c-2 1.89-3.91 3.59-5.74 5.12-.22.18-.37.4-.44.67-.07.26-.14.44-.2.54l.01-.08v-.07l-.07-.01c-.01.05.17.09.52.12s.78.07 1.29.12c.46.04 1.05.09 1.78.16.74.07 1.51.1 2.33.1.82 0 1.62-.03 2.42-.08.79-.05 1.48-.17 2.06-.37.05.01.1-.01.16-.06.1.01.14.06.13.16-.06.74-.78 1.34-2.15 1.85-1.37.49-3.48.61-6.31.35-.4-.03-.81-.07-1.21-.1-.41-.04-.83-.1-1.29-.2l-.82 2.31c-2 6.34-3.98 11.57-5.96 15.67s-3.99 7.32-6.04 9.65c-2.05 2.34-4.13 3.92-6.24 4.75-2.12.82-4.31 1.13-6.59.92-.91-.08-1.35-.32-1.31-.71.01-.15.13-.29.34-.42.22-.12.48-.17.78-.15l.38.04c2.89.26 5.92-2.58 9.11-8.53zm18.49-30.23c.76-.53 1.66-1.26 2.69-2.21 1.02-.94 2.07-2.01 3.12-3.2 1.05-1.19 2.08-2.47 3.1-3.84 1.01-1.37 1.94-2.72 2.77-4.05a34 34 0 0 0 2.07-3.79c.54-1.18.85-2.24.93-3.18.1-1.08-.18-1.64-.84-1.7-.71-.07-1.73.5-3.06 1.69s-2.69 2.96-4.07 5.3c-.42.71-.83 1.41-1.23 2.12-.39.7-.83 1.56-1.3 2.55-.47 1-.99 2.19-1.55 3.57-.55 1.39-1.23 3.08-2.02 5.09-.23.82-.43 1.34-.6 1.58l-.01.07z" style="fill:#cc0300;fill-rule:nonzero"/></g></svg>