<svg xmlns="http://www.w3.org/2000/svg" xml:space="preserve" width="34" height="40" style="shape-rendering:geometricPrecision;text-rendering:geometricPrecision;image-rendering:optimizeQuality;fill-rule:evenodd;clip-rule:evenodd"><defs><style>.fil0{fill:#900603}</style></defs><g id="Camada_x0020_1"><path class="fil0" d="M8.11 30.92c.3.1.24.07.39-.18.12-.21.03-.11.26-.25-.35-.16-.57-.16-.49-.57-.04-.16-.38-.65-.57-1.25-.66-2.14 1.28-3.25 2.5-2.14.95.87.86 2.71 1.01 4.06.08.77.26 1.17.28 1.38-1.93-.56-1.73-1.04-1.98-1.32l-.19-.11c-.18.18-.32.17-.52.29-.57.33-.48.13-.41.37.38.57 2.16 1.43 3.03 1.69 5.08 1.5 8.72-2.28 8.41-2.73-.33-.38-.73.21-1.03.45-.33.27-.61.46-.94.67-.57.37-1.37.7-2.14.88-.8.19-1.59.26-2.58.17-.62-.06-.86-.13-1.06-.58-.62-1.41.02-4.3-1.46-5.65-1-.91-2.59-.77-3.33.47-.34.56-.21.86-.37 1.29-.07-.27-.24-.63-.33-.95-.07-.27-.11-.86-.54-.66-.54.29.69 3.73 2.06 4.67zM10.52 23.42l.1-.51c-.18-.72-.24-1.02-.78-1.54-2.14-2.1-5.25-.43-4.99.6.6.23.41-.25 1.49-.62 1.45-.49 3.26.37 3.63 1.69.08.28.13.67.55.38zM18.27 24.54c-.13.17.06.08-.17.15-.2.26-.78.8-.16.99.38-.16.52-.5.87-.56.6-.42 1.9-.36 2.77.14 1.45.83.92 1.79 1.66 1.92.41-.37.04-1.21-.14-1.55-.21-.4-.68-.9-1.22-1.2-1.97-1.08-3.51.1-3.61.11z"/><path class="fil0" d="M8.67 29.64c.44.31.38.32.18.78.14-.05.38-.13.5-.19.01-.33-.14-.67-.11-1.05.04-.54.35-.89-.28-.96-.33.27-.4 1.07-.29 1.42z"/><path class="fil0" d="M29.37 22.4c.46 2.13.4 4.4-.28 6.64-2.21 7.28-10.11 11.46-17.64 9.32C3.92 36.22-.4 28.59 1.81 21.31c1.13-3.72 3.73-6.62 7.01-8.29l.87.98c-3.1 1.5-5.58 4.19-6.63 7.66-2.01 6.62 1.91 13.55 8.75 15.49 6.85 1.94 14.02-1.85 16.03-8.46.62-2.05.67-4.12.25-6.07l1.28-.22zm-1.48-.57z"/><path class="fil0" d="M16.96 3.67c-5.36-1.18-9.14 3.1-8.18 6.65.56 2.09 2.28 2.85 2.35 3.31-.22.97-1.11 3.57-.98 4.3 7.12 1.99 6.69 2.58 12.35 5.59-1.36-2.61-8.36-5.15-10.64-6.3.02-.42.13-.69.24-1.11.1-.4.16-.78.25-1.17.08-.32.22-.77.28-1.14.1-.69.05-.5-.49-1.01-4.29-4.09-.5-9.19 5.73-6.99 2.66-2.76 5.54-3.45 8.94-1.12 3.13 2.15 3.3 5.39.67 8.62.62-.04.98-.36 1.64-.65 1.92 1.08 2.84 3.33 2.08 5.29-.97 2.52-3.15 2.63-5.47 1.77l-1.55 2.37c-2.04-1.54-1.95-2.16-5.31-3.95-2.48-1.32-4.11-1.6-6.55-2.08.77.61 4.37.68 9.18 4.68.67.55 1.83 1.77 2.33 2.1l1.58-1.58c2.85.5 5.72.31 7.11-2.71 1.59-3.45-.83-5.31-2.13-7.01 2.99-9.11-9.12-13.29-13.43-7.86z"/><path class="fil0" d="m20.85 16.01.61.37c.52-.26 2.99-2.83 3.29-3.42-.82.19-3.48 2.18-3.9 3.05zM17.63 14.48l.78.3c.33-.63.72-3.95.26-4.78l-1.04 4.48zM23.82 18.21l.51.57c.5-.25 2.29-2 2.71-2.53l-1.63.82c-.52.31-1.16.66-1.59 1.14zM13.95 13.58l.85.21c.28-1.32-.05-2.72-.17-3.84l-.68 3.63zM6.75 29.17c.75 1.42 2.22 2.92 3.83 3.4l-.04-.94c-1.26-.29-2.14-1.36-2.8-2.84l-.99.38z"/><path class="fil0" d="m8.65 29.56.59-.18c.06.64.25 1.22.56 1.73l-.47.25c-.35-.41-.57-1.11-.68-1.8z"/></g></svg>